<?xml version="1.0" standalone="no"?>
<!DOCTYPE svg PUBLIC "-//W3C//DTD SVG 20010904//EN"
 "http://www.w3.org/TR/2001/REC-SVG-20010904/DTD/svg10.dtd">
<svg version="1.0" xmlns="http://www.w3.org/2000/svg"
 width="400.000000pt" height="400.000000pt" viewBox="0 0 400.000000 400.000000"
 preserveAspectRatio="xMidYMid meet">
<metadata>
Created by potrace 1.14, written by Peter Selinger 2001-2017
</metadata>
<g transform="translate(0.000000,400.000000) scale(0.100000,-0.100000)"
fill="#000000" stroke="none">
<path d="M894 2779 c-51 -27 -667 -649 -690 -697 -23 -49 -22 -137 2 -184 26
-50 625 -653 672 -676 52 -26 122 -28 174 -4 31 14 129 106 357 335 173 174
323 330 334 347 10 16 21 56 24 88 9 102 -1 116 -339 457 -167 169 -318 316
-337 327 -49 31 -145 34 -197 7z m371 -440 c314 -318 319 -323 308 -344 -12
-21 -594 -605 -603 -605 -15 0 -585 581 -588 598 -2 12 98 120 295 320 164
166 303 302 308 302 6 0 132 -122 280 -271z"/>
<path d="M1451 2784 c-38 -16 -65 -70 -55 -112 5 -17 95 -115 248 -270 132
-133 242 -246 245 -250 4 -4 21 -20 39 -35 48 -39 99 -37 149 5 21 18 41 36
44 41 3 4 112 114 242 246 150 151 237 246 238 260 1 11 2 27 3 34 7 41 -60
100 -103 92 -9 -2 -21 -4 -27 -4 -7 -1 -116 -106 -243 -233 l-231 -233 -231
233 c-127 127 -236 232 -243 233 -6 0 -18 2 -27 4 -8 1 -30 -3 -48 -11z"/>
<path d="M2945 2782 c-27 -13 -146 -125 -355 -336 -173 -174 -323 -330 -333
-346 -30 -47 -34 -137 -9 -193 30 -68 628 -670 688 -693 51 -20 138 -14 180
11 49 30 661 654 680 693 23 49 22 137 -2 184 -25 49 -626 654 -673 677 -49
24 -126 26 -176 3z m381 -462 c159 -160 290 -298 292 -308 3 -18 -583 -622
-604 -622 -18 0 -595 591 -592 605 3 16 596 615 608 615 5 0 138 -131 296
-290z"/>
<path d="M1928 1883 c-18 -15 -35 -31 -39 -35 -3 -4 -114 -118 -247 -252 -133
-134 -242 -250 -243 -257 0 -8 -2 -21 -4 -30 -10 -54 58 -113 118 -102 19 4
97 76 257 237 l230 231 229 -230 c245 -246 264 -260 323 -229 44 23 67 87 46
128 -6 12 -113 125 -239 251 -125 127 -238 241 -251 255 -62 68 -123 79 -180
33z"/>
</g>
</svg>
